<svg xmlns="http://www.w3.org/2000/svg" viewBox="0 0 488 512"><path fill="#4285f4" d="M488 261.8c0-17.5-1.6-34.3-4.6-50.6H249v95.3h135.6c-5.9 31.8-23.5 58.7-50.2 76.6v63.5h81c47.3-43.6 74.6-107.9 74.6-184.8z"></path><path fill="#34a853" d="M249 512c67.7 0 124.6-22.4 166.2-60.8l-81-63.5c-22.5 15.1-51.4 23.9-85.2 23.9-65.6 0-121.1-44.3-140.9-103.9H25.7v65.3C67.3 457.9 152.4 512 249 512z"></path><path fill="#fbbc04" d="M108.1 308.8c-10.2-30.7-10.2-63.9 0-94.6V148.9H25.7c-29.1 57.9-29.1 126.6 0 184.5l82.4-65.3z"></path><path fill="#ea4335" d="M249 100.7c35.9 0 68.2 12.3 93.5 36.4l70.2-70.2C373.4 23.5 316.7 0 249 0 152.4 0 67.3 54.1 25.7 148.9l82.4 65.3C127.9 145 183.4 100.7 249 100.7z"></path></svg>
